# xmcd
#
# Track frame offsets: 
#        150
#        12154
#        25219
#        38162
#        49168
#        66156
#        77487
#        91651
#        103294
#        116142
#        133207
#        148631
#
# Disc length: 2130 seconds
#
# Revision: 0
# Processed by: cddbd v1.5.2PL0 Copyright (c) Steve Scherf et al.
# Submitted via: ExactAudioCopy v1.0b1
#
DISCID=a008500c
DTITLE=Otis Redding - The Dictionary Of Soul
DYEAR=1966
DGENRE=R&B
TTITLE0=Fa-Fa-Fa-Fa-Fa (Sad Song)
TTITLE1=I'm Sick Y'All
TTITLE2=Tennessee Waltz
TTITLE3=Sweet Lorene
TTITLE4=Try A Little Tenderness
TTITLE5=Day Tripper
TTITLE6=My Lover's Prayer
TTITLE7=She Put The Hurt On Me
TTITLE8=Ton Of Joy
TTITLE9=You're Still My Baby
TTITLE10=Hawg For You
TTITLE11=Love Have Mercy
EXTD=
EXTT0=
EXTT1=
EXTT2=
EXTT3=
EXTT4=
EXTT5=
EXTT6=
EXTT7=
EXTT8=
EXTT9=
EXTT10=
EXTT11=
PLAYORDER=
